<?xml version="1.0" encoding="UTF-8" standalone="no"?>
<!-- Created with Inkscape (http://www.inkscape.org/) -->

<svg
   version="1.1"
   id="svg562"
   width="322.65079mm"
   height="460.87759mm"
   viewBox="0 0 1219.4676 1741.8996"
   sodipodi:docname="strat-body-outline.svg"
   inkscape:version="1.2.2 (b0a8486541, 2022-12-01, custom)"
   xmlns:inkscape="http://www.inkscape.org/namespaces/inkscape"
   xmlns:sodipodi="http://sodipodi.sourceforge.net/DTD/sodipodi-0.dtd"
   xmlns="http://www.w3.org/2000/svg"
   xmlns:svg="http://www.w3.org/2000/svg">
  <defs
     id="defs566" />
  <sodipodi:namedview
     id="namedview564"
     pagecolor="#ffffff"
     bordercolor="#000000"
     borderopacity="0.25"
     inkscape:showpageshadow="2"
     inkscape:pageopacity="0.0"
     inkscape:pagecheckerboard="0"
     inkscape:deskcolor="#d1d1d1"
     showgrid="false"
     inkscape:zoom="0.58907413"
     inkscape:cx="585.66483"
     inkscape:cy="1927.6012"
     inkscape:window-width="1920"
     inkscape:window-height="1016"
     inkscape:window-x="0"
     inkscape:window-y="0"
     inkscape:window-maximized="1"
     inkscape:current-layer="g570"
     inkscape:document-units="mm">
    <inkscape:page
       x="0"
       y="0"
       id="page568"
       width="1219.4677"
       height="1741.8997" />
  </sodipodi:namedview>
  <g
     id="g570"
     inkscape:groupmode="layer"
     inkscape:label="Page 1"
     transform="matrix(1.3333333,0,0,-1.3333333,613.92401,1817.2155)">
    <path
       style="fill:none;stroke:#1f1917;stroke-width:1.1367;stroke-linecap:butt;stroke-linejoin:miter;stroke-miterlimit:10;stroke-dasharray:none;stroke-opacity:1"
       d="m 381.66133,527.43133 v 9 9"
       id="path984" />
    <path
       style="fill:none;stroke:#1f1917;stroke-width:1.1367;stroke-linecap:butt;stroke-linejoin:miter;stroke-miterlimit:10;stroke-dasharray:none;stroke-opacity:1"
       d="m 390.66133,536.43133 h -18"
       id="path982" />
    <path
       style="fill:none;stroke:#1f1917;stroke-width:1.1367;stroke-linecap:butt;stroke-linejoin:miter;stroke-miterlimit:10;stroke-dasharray:none;stroke-opacity:1"
       d="m -384.74838,-80.395788 c 0.072,-10.584 5.76,-20.304002 15.12,-25.200002 13.392,-6.984 27.504,-12.6 42.048,-16.704 9.504,-2.664 19.368,-4.032 29.232,-4.032 102.24,0 114.84,110.448002 118.872,134.2080023 1.512,8.7839997 5.472,16.9199997 11.448,23.5439997 8.496,9.432 20.664,14.904 33.408,14.904 14.976,0 28.944,-7.416 37.367997,-19.8 19.223997,-28.4399997 29.519997,-62.064 29.519997,-96.408 0,-134.928002 -73.871994,-192.528002 -73.871994,-289.728032 0,-25.848 5.616,-51.48 16.344,-75.096 15.192,-33.12 30.455994,-66.24 45.863994,-99.36 24.48,-52.56 43.848,-107.352 57.96,-163.44 8.064,-32.4 12.1680011,-65.664 12.1680011,-99 0,-13.104 -0.576,-26.28 -1.8000011,-39.312 -2.232,-23.544 -7.56,-46.656 -15.84,-68.832 -6.48,-17.352 -15.336,-33.696 -26.352,-48.6 -24.696,-33.48 -56.807994,-60.91198 -93.815994,-80.13598 -44.352,-22.968 -93.096,-36.36 -142.92,-39.312 -29.664,-1.728 -59.328,-2.808 -88.992,-3.024 -21.96,-0.144 -43.92,-0.288 -65.808,-0.288 -41.4,0 -82.728,0.36 -124.056,1.08 -38.664,0.648 -77.112,4.392 -115.128,11.16 -25.56,4.536 -50.616,11.736 -74.664,21.528 -36.432,14.904 -69.48,37.152 -96.984,65.30398 -14.544,14.976 -26.928,31.896 -36.72,50.328 -19.008,35.856 -29.376,75.6 -30.312,116.136 -0.072,2.808 -0.072,5.688 -0.072,8.496 0,16.2 1.08,32.4 3.24,48.456 6.84,50.976 18.288,101.304 34.2,150.264 17.928,55.512 39.24,109.944 63.72,163.008 8.064,17.568 15.48,35.424 22.176,53.568 10.152,27.504 15.408,56.664 15.408,85.96803 0,105.552 -75.744,197.784 -75.744,358.704002 0,103.535998 40.608,171.287998 90.288,171.287998 22.536,0 41.976,-19.728 41.976,-53.064 0,-173.6639977 116.136,-173.8079977 127.944,-173.8079977 48.6,0 58.824,39.5999997 60.264,44.4239997 2.088,6.624 8.28,11.16 15.264,11.16 h 123.768 c 7.488,0 13.608,-6.048 13.608,-13.464 z"
       id="path768"
       sodipodi:nodetypes="cccsccscsscccsccccccsccccccsccccssssscsscc" />
  </g>
</svg>
